<?xml version="1.0" encoding="utf-8"?>
<!-- Generator: Adobe Illustrator 25.2.1, SVG Export Plug-In . SVG Version: 6.00 Build 0)  -->
<svg version="1.1" id="svg2" xmlns:svg="http://www.w3.org/2000/svg"
	 xmlns="http://www.w3.org/2000/svg" xmlns:xlink="http://www.w3.org/1999/xlink" x="0px" y="0px" viewBox="0 0 42.5 53.1"
	 style="enable-background:new 0 0 42.5 53.1;" xml:space="preserve">
<style type="text/css">
	.st0{display:none;}
	.st1{display:inline;fill:none;stroke:#000000;stroke-width:7.031591e-02;}
	.st2{display:inline;fill:none;stroke:#000000;stroke-width:0.1;}
	.st3{fill-rule:evenodd;clip-rule:evenodd;fill:#F7E7D4;}
</style>
<g id="layer2" class="st0">
	<path id="rect3211" class="st1" d="M5.2,9.3h31.5c0.1,0,0.2,0.1,0.2,0.2V44c0,0.1-0.1,0.2-0.2,0.2H5.2C5.1,44.2,5,44.1,5,44V9.5
		C5,9.4,5.1,9.3,5.2,9.3z"/>
	<path id="rect2383" class="st2" d="M0.3,0h41.9c0.2,0,0.3,0.1,0.3,0.3v52.5c0,0.2-0.1,0.3-0.3,0.3H0.3C0.1,53.1,0,53,0,52.8V0.3
		C0,0.1,0.1,0,0.3,0z"/>
</g>
<g id="layer3">
	<path id="path3569" class="st3" d="M21.5,7.7l-1.8,3.8l-14,29.9L9.2,43l1.8-4l16.5-8.6l5.7,12.7l3.5-1.6L23.2,11.5L21.5,7.7z
		 M21.4,16.8L25.9,27l-12.2,6.4L21.4,16.8z"/>
</g>
</svg>
